HIERARCHY
ROOT Hips
{
	OFFSET 0.000000 0.000000 0.000000 
	CHANNELS 6 Xposition Yposition Zposition Zrotation Yrotation Xrotation
	JOINT LeftUpLeg
	{
		OFFSET 1.363060 -1.794630 0.839290 
		CHANNELS 3 Zrotation Yrotation Xrotation
		JOINT LeftLeg
		{
			OFFSET 2.448110 -6.726130 0.000000 
			CHANNELS 3 Zrotation Yrotation Xrotation
			JOINT LeftFoot
			{
				OFFSET 2.562200 -7.039590 0.000000 
				CHANNELS 3 Zrotation Yrotation Xrotation
				JOINT LeftToeBase
				{
					OFFSET 0.157640 -0.433110 2.322550 
					CHANNELS 3 Zrotation Yrotation Xrotation
					End Site
					{
						OFFSET 0.000000 0.000000 0.000000 
					}
				}
			}
		}
	}
	JOINT RightUpLeg
	{
		OFFSET -1.305520 -1.794630 0.839290 
		CHANNELS 3 Zrotation Yrotation Xrotation
		JOINT RightLeg
		{
			OFFSET -2.542530 -6.985550 0.000000 
			CHANNELS 3 Zrotation Yrotation Xrotation
			JOINT RightFoot
			{
				OFFSET -2.568260 -7.056230 0.000000 
				CHANNELS 3 Zrotation Yrotation Xrotation
				JOINT RightToeBase
				{
					OFFSET -0.164730 -0.452590 2.363150 
					CHANNELS 3 Zrotation Yrotation Xrotation
					End Site
					{
						OFFSET 0.000000 0.000000 0.000000 
					}
				}
			}
		}
	}
	JOINT Spine
	{
		OFFSET 0.028270 2.035590 -0.193380 
		CHANNELS 3 Zrotation Yrotation Xrotation
		JOINT Spine1
		{
			OFFSET 0.056720 2.048850 -0.042750 
			CHANNELS 3 Zrotation Yrotation Xrotation
			JOINT Neck1
			{
				OFFSET -0.054170 1.746240 0.172020 
				CHANNELS 3 Zrotation Yrotation Xrotation
				JOINT Head
				{
					OFFSET 0.104070 1.761360 -0.123970 
					CHANNELS 3 Zrotation Yrotation Xrotation
					End Site
					{
						OFFSET 0.000000 0.000000 0.000000 
					}
				}
			}
			JOINT LeftArm
			{
				OFFSET 3.362410 1.200890 -0.311210 
				CHANNELS 3 Zrotation Yrotation Xrotation
				JOINT LeftForeArm
				{
					OFFSET 4.983000 -0.000000 -0.000000 
					CHANNELS 3 Zrotation Yrotation Xrotation
					JOINT LeftHand
					{
						OFFSET 3.483560 -0.000000 -0.000000 
						CHANNELS 3 Zrotation Yrotation Xrotation
						JOINT LeftHandIndex1
						{
							OFFSET 0.715260 -0.000000 -0.000000 
							CHANNELS 3 Zrotation Yrotation Xrotation
							End Site
							{
								OFFSET 0.000000 0.000000 0.000000 
							}
						}
					}
				}
			}
			JOINT RightArm
			{
				OFFSET -3.136600 1.374050 -0.404650 
				CHANNELS 3 Zrotation Yrotation Xrotation
				JOINT RightForeArm
				{
					OFFSET -5.241900 -0.000000 -0.000000 
					CHANNELS 3 Zrotation Yrotation Xrotation
					JOINT RightHand
					{
						OFFSET -3.444170 -0.000000 -0.000000 
						CHANNELS 3 Zrotation Yrotation Xrotation
						JOINT RightHandIndex1
						{
							OFFSET -0.622530 -0.000000 -0.000000 
							CHANNELS 3 Zrotation Yrotation Xrotation
							End Site
							{
								OFFSET 0.000000 0.000000 0.000000 
							}
						}
					}
				}
			}
		}
	}
}
MOTION
Frames: 15
Frame Time: 0.041667
11.089401 17.815338 -17.401401 -3.197655 56.229335 2.941889 -7.179903 -10.068539 -5.200869 -0.456728 6.186369 17.188702 -2.592596 12.256192 -13.472789 0.021600 -0.948500 -2.607000 9.371902 19.383899 -9.519024 -1.234693 -7.074575 21.401306 0.616409 -4.834565 -5.671909 -0.276500 -3.382300 9.344800 1.552942 -1.672612 -0.188606 -1.761645 -1.226585 1.482569 12.923372 -25.252750 17.875926 4.504400 -12.078300 10.723800 -89.955387 4.867194 12.531045 13.387739 -13.966504 -1.671533 -1.900998 -1.455777 8.152498 -7.125000 0.000000 0.000000 91.677153 -5.254049 16.645547 -16.714297 24.292309 -3.921381 0.481760 -0.866730 2.900830 7.125000 0.000000 0.000000 
11.093436 17.819275 -17.405337 -3.241398 56.287142 2.854223 -7.163743 -10.152166 -5.077768 -0.469710 6.153767 17.085666 -2.514931 12.002000 -13.447651 0.006300 -0.512900 -1.409400 9.380803 19.561870 -9.376777 -1.239726 -7.091621 21.449565 0.608102 -4.829436 -5.916109 -0.344500 -3.771300 10.434100 1.590923 -1.746539 -0.179345 -1.737399 -1.263421 1.463605 12.847377 -25.164674 17.993829 4.484900 -12.033800 10.774100 -90.039404 4.822188 12.562487 13.461767 -14.074729 -1.698122 -1.930286 -1.444158 7.727826 -7.125000 0.000000 0.000000 91.473196 -5.068378 16.669895 -16.526036 24.027561 -3.830619 0.481172 -0.866801 3.020189 7.125000 0.000000 0.000000 
11.095896 17.822030 -17.404452 -3.306679 56.288125 2.804111 -7.132041 -10.057916 -5.101858 -0.472310 6.143021 17.042133 -2.537487 12.051694 -13.320390 0.005200 -0.464800 -1.277000 9.407794 19.944497 -9.206928 -1.244177 -7.097530 21.482988 0.624316 -4.971742 -6.226908 -0.381500 -3.966500 10.982400 1.509634 -1.609946 -0.091109 -1.815750 -1.198577 1.564649 12.711916 -25.385560 18.088330 4.335900 -12.101100 10.839400 -89.843197 4.470698 12.380309 13.459547 -14.068051 -1.694623 -1.872743 -1.395430 8.504535 -7.125000 0.000000 0.000000 91.546773 -4.759360 16.360110 -16.415518 23.868902 -3.775908 0.482453 -0.866048 2.714898 7.125000 0.000000 0.000000 
11.096979 17.815436 -17.404452 -3.367755 56.293642 2.766923 -7.105800 -9.994821 -5.105765 -0.478455 6.122628 16.974438 -2.574497 12.149827 -13.204595 0.002000 -0.285800 -0.785300 9.473369 19.917439 -9.248404 -1.251600 -7.107834 21.520347 0.658450 -5.145349 -6.119369 -0.283200 -3.422600 9.457700 1.461789 -1.500833 -0.032242 -1.849391 -1.148161 1.648019 12.681754 -25.524812 18.111306 4.277700 -12.149600 10.875900 -89.528477 4.136333 11.875145 13.461401 -14.072380 -1.682295 -1.682734 -1.408221 10.703799 -7.125000 0.000000 0.000000 91.674800 -4.531778 15.534329 -16.391886 23.849611 -3.770794 0.442551 -0.865987 3.044837 7.125000 0.000000 0.000000 
11.099538 17.809138 -17.405436 -3.172368 56.342824 2.906781 -7.227493 -10.029052 -5.033586 -0.485280 6.103718 16.932517 -2.539107 12.052022 -13.275397 -0.000000 -0.036800 -0.101200 9.383150 19.751411 -9.296690 -1.254613 -7.124946 21.546915 0.684011 -5.273275 -5.978101 -0.207900 -2.935900 8.100400 1.486334 -1.571002 -0.025497 -1.715200 -1.188726 1.687309 12.776893 -25.430632 18.182971 4.356100 -12.112300 10.932400 -89.420701 4.052310 11.512441 13.510213 -14.146099 -1.689070 -1.542065 -1.442544 12.071423 -7.125000 0.000000 0.000000 91.576587 -4.374883 15.023971 -16.280034 23.705321 -3.724404 0.404098 -0.867599 3.744858 7.125000 0.000000 0.000000 
11.104557 17.809728 -17.407306 -2.885302 56.428080 3.164122 -7.399946 -10.103777 -4.994866 -0.489437 6.089564 16.911027 -2.566875 12.150121 -13.297265 0.001800 -0.272300 -0.748300 9.170439 19.643907 -9.353628 -1.253277 -7.138050 21.557953 0.675099 -5.236356 -6.019963 -0.232400 -3.103100 8.565800 1.517234 -1.680706 -0.035425 -1.601375 -1.248262 1.726532 12.724073 -25.378106 18.407757 4.354000 -12.087600 11.067100 -89.705177 4.100158 11.702303 13.590987 -14.246188 -1.718462 -1.582222 -1.426592 11.119428 -7.125000 0.000000 0.000000 91.273480 -4.188382 15.092772 -16.041914 23.367000 -3.613662 0.390815 -0.877616 4.116381 7.125000 0.000000 0.000000 
11.107214 17.811303 -17.409274 -2.996348 56.517288 3.120563 -7.336215 -10.124227 -5.027605 -0.491692 6.081718 16.880858 -2.637690 12.354637 -13.184329 0.008900 -0.607500 -1.669300 9.192554 19.579437 -9.420018 -1.254315 -7.141140 21.568849 0.659173 -5.157184 -6.083811 -0.299400 -3.518200 9.724800 1.356863 -1.440363 -0.175758 -1.765842 -1.121148 1.580766 12.640195 -25.600807 18.505676 4.299500 -12.197100 11.012100 -89.431747 4.306837 11.523440 13.634133 -14.342940 -1.734199 -1.464161 -1.410412 12.990119 -7.125000 0.000000 0.000000 91.392936 -4.350754 14.415946 -15.811077 23.055566 -3.512518 0.360824 -0.890825 4.582476 7.125000 0.000000 0.000000 
11.106919 17.811500 -17.409274 -3.167729 56.551294 2.936252 -7.234618 -10.120756 -5.010044 -0.494175 6.082284 16.868694 -2.624672 12.317616 -13.224732 0.006000 -0.499000 -1.371300 9.315601 19.677280 -9.323345 -1.255579 -7.136162 21.570349 0.665878 -5.203078 -6.148950 -0.346100 -3.780000 10.458600 1.589448 -1.695189 -0.045402 -1.576077 -1.255542 1.739112 12.325253 -25.419018 18.977819 4.146900 -12.075000 11.340000 -89.809043 3.955408 12.237882 13.763127 -14.488486 -1.780252 -1.594811 -1.504270 10.685014 -7.125000 0.000000 0.000000 90.762980 -3.729201 14.822681 -15.476227 22.574666 -3.366410 0.316260 -0.900184 5.129007 7.125000 0.000000 0.000000 
11.107510 17.808941 -17.408093 -3.060575 56.550568 2.963901 -7.310984 -10.195134 -4.920698 -0.494388 6.093038 16.903645 -2.603479 12.286607 -13.408755 0.003900 -0.401200 -1.102500 9.301725 19.736540 -9.184900 -1.249268 -7.130901 21.535372 0.707783 -5.436412 -6.105496 -0.292300 -3.476600 9.608600 1.630070 -1.693663 -0.021591 -1.433569 -1.259158 1.747182 12.345086 -25.393738 18.961543 4.165000 -12.067300 11.307500 -89.898676 3.857321 12.765269 13.783767 -14.504665 -1.793327 -1.663404 -1.521077 9.603182 -7.125000 0.000000 0.000000 90.541125 -3.527566 14.563623 -15.268161 22.279760 -3.278497 0.280296 -0.895436 5.571058 7.125000 0.000000 0.000000 
11.110757 17.807268 -17.406420 -2.899868 56.619028 3.032307 -7.425593 -10.305833 -4.805847 -0.491146 6.105158 16.939421 -2.651953 12.448514 -13.407305 0.012500 -0.723000 -1.986900 9.239196 19.642204 -9.084833 -1.240961 -7.130335 21.499967 0.732900 -5.586914 -6.104334 -0.243700 -3.176700 8.771100 1.579818 -1.646813 -0.006759 -1.380618 -1.240747 1.749020 12.496524 -25.433322 18.970392 4.229000 -12.081800 11.307900 -89.816027 3.716039 12.420625 13.779827 -14.491164 -1.786150 -1.534199 -1.459735 10.768785 -7.125000 0.000000 0.000000 90.443533 -3.372751 14.266601 -15.080781 22.012510 -3.197480 0.260922 -0.898843 5.959942 7.125000 0.000000 0.000000 
11.113414 17.810122 -17.406026 -2.997929 56.733378 2.944561 -7.376848 -10.251675 -4.835929 -0.483683 6.113901 16.951361 -2.727076 12.644419 -13.146982 0.037800 -1.255600 -3.452300 9.294861 19.575026 -9.055511 -1.237258 -7.126293 21.483186 0.731406 -5.590821 -6.164311 -0.254200 -3.243900 8.958500 1.443545 -1.462521 -0.123020 -1.500632 -1.144302 1.619859 12.599860 -25.575597 19.030633 4.279000 -12.155200 11.272900 -89.436687 3.673871 10.417025 13.723042 -14.445034 -1.751418 -1.118791 -1.322163 15.843789 -7.125000 0.000000 0.000000 90.523326 -3.426579 13.815747 -14.766426 21.563402 -3.059029 0.255611 -0.931599 6.356393 7.125000 0.000000 0.000000 
11.114595 17.811106 -17.406518 -2.943323 56.793937 3.022461 -7.399770 -10.117412 -4.942623 -0.474875 6.122214 16.980650 -2.744122 12.669960 -12.975800 0.060600 -1.588000 -4.368300 9.264713 19.638319 -9.017358 -1.231983 -7.117716 21.450160 0.759500 -5.750256 -6.174661 -0.227500 -3.070100 8.474000 1.290070 -1.268576 -0.284017 -1.595648 -1.039297 1.449979 12.690113 -25.689690 19.017061 4.353800 -12.236300 11.175200 -89.106801 3.930478 13.134156 13.722971 -14.449313 -1.780100 -1.375769 -1.427599 11.861193 -7.125000 0.000000 0.000000 90.576565 -3.539189 13.201859 -14.426682 21.081264 -2.915332 0.229964 -0.972717 7.052058 7.125000 0.000000 0.000000 
11.116957 17.808350 -17.407010 -2.720174 56.815952 3.211924 -7.530189 -10.114835 -4.955960 -0.469406 6.133109 17.029828 -2.714320 12.587343 -13.033348 0.053800 -1.497300 -4.118400 9.138452 19.622666 -8.976065 -1.223714 -7.111201 21.406929 0.782766 -5.882657 -6.158748 -0.173600 -2.683600 7.399200 1.223759 -1.235570 -0.321776 -1.560211 -1.023819 1.440574 12.682124 -25.693294 19.191325 4.378100 -12.245100 11.247300 -88.779796 3.900642 15.375781 13.719119 -14.450146 -1.807420 -1.564560 -1.508303 8.867331 -7.125000 0.000000 0.000000 90.424797 -3.329035 12.595253 -14.176732 20.733991 -2.818766 0.169968 -0.985642 8.075626 7.125000 0.000000 0.000000 
11.121386 17.809630 -17.407306 -2.739385 56.816940 3.189951 -7.540008 -10.155562 -4.925065 -0.467754 6.141365 17.055995 -2.676500 12.479047 -13.108440 0.034000 -1.190700 -3.273700 9.136130 19.576415 -8.960561 -1.220065 -7.107034 21.388948 0.767731 -5.804572 -6.184898 -0.178800 -2.723900 7.511000 1.207949 -1.214688 -0.325570 -1.567571 -1.015131 1.474635 12.610248 -25.704414 19.424705 4.352000 -12.244000 11.359000 -88.570510 3.729126 15.579854 13.673687 -14.384562 -1.795330 -1.556828 -1.476236 9.205100 -7.125000 0.000000 0.000000 90.260821 -3.036784 12.028308 -13.993279 20.478859 -2.752632 0.105988 -0.971586 8.896148 7.125000 0.000000 0.000000 
11.120402 17.813370 -17.406420 -2.807534 56.848731 3.149056 -7.482955 -10.119030 -4.980624 -0.463634 6.147047 17.069050 -2.644005 12.356606 -13.023249 0.038600 -1.268800 -3.488700 9.175531 19.685115 -8.926694 -1.218482 -7.097151 21.372576 0.778043 -5.868129 -6.244962 -0.209000 -2.943100 8.120500 1.279901 -1.247739 -0.301604 -1.516440 -1.035873 1.526787 12.539938 -25.644633 19.653755 4.319100 -12.200900 11.505900 -88.795387 3.354655 14.148653 13.666666 -14.351586 -1.771816 -1.480702 -1.428516 11.467925 -7.125000 0.000000 0.000000 89.952639 -2.692030 11.682252 -13.825792 20.233576 -2.689005 0.056638 -0.960577 9.605391 7.125000 0.000000 0.000000 
